:SAMPLES-PER-SECOND 30
:FRAME-RANGE 1-1700
:FULLY-SPECIFIED
:DEGREES
691
root  -7.31856 41.3198 34.0449 -18.5646 -52.327 7.07996
RightUpLeg  3.19106 -5.03246 1.88179
RightLeg  33.9533 -6.57931 -4.99319
RightFoot  4.50496 -0.0360989 0.480807
RightToes  -1.16417e-010 0 -3.6325e-017
Spine  14.1544 0.496027 -6.55747
Spine1  -3.28989 -5.74918 11.3208
HEad  -18.4728 -20.8985 14.0256
LeftShoulder1  3.00706 -5.21594 -28.4343
LeftArm  73.614 -35.2311 -90.4709
LeftForeArm  1.49652 -14.0228 -14.597
LeftHand  -0.0443895 4.73303 -1.78145
RightShoulder  14.1762 25.5104 42.3423
RightArm  42.0944 12.1477 21.3023
RightForeArm  18.5812 27.8943 5.01427
RightHand  1.79985 7.79011 15.334
LeftUpLeg  -105.646 17.9902 -79.5959
LeftLeg  125.231 -5.20265 6.34304
LeftFoot  11.3581 3.27226 -16.5539
LeftToes  1.03528e-008 1.55373e-010 -2.26046e-010
692
root  -7.64382 41.0859 34.6601 -18.2553 -54.5036 7.70042
RightUpLeg  0.696536 -8.33415 2.44216
RightLeg  26.4205 -7.47906 -4.25024
RightFoot  1.86424 -0.445234 3.95407
RightToes  -1.16417e-010 0 -3.6325e-017
Spine  14.6067 0.202872 -5.19379
Spine1  -2.67025 -5.7629 10.3595
HEad  -19.645 -20.306 14.6399
LeftShoulder1  3.00425 -5.12887 -28.7568
LeftArm  68.1672 -36.2843 -89.9722
LeftForeArm  6.46412 -12.3407 -15.5537
LeftHand  -0.0458764 4.81256 -1.55164
RightShoulder  14.7822 26.6773 42.4182
RightArm  43.4953 12.8786 21.5123
RightForeArm  17.4279 26.9319 4.85981
RightHand  1.78116 7.82745 15.1285
LeftUpLeg  -106.602 20.0676 -80.4211
LeftLeg  124.699 -4.38344 5.38503
LeftFoot  11.6992 3.09149 -15.4435
LeftToes  1.03528e-008 1.55373e-010 -2.26046e-010
693
root  -7.94773 40.3939 35.2491 -18.4502 -56.7228 9.30653
RightUpLeg  -1.76794 -13.4675 2.93123
RightLeg  17.6223 -9.40876 -2.46892
RightFoot  -0.420355 -0.609978 6.3438
RightToes  -1.16417e-010 0 -3.6325e-017
Spine  15.1955 0.210927 -4.14717
Spine1  -2.66628 -5.35184 8.90912
HEad  -19.6978 -20.9439 14.656
LeftShoulder1  3.0045 -5.13319 -28.742
LeftArm  71.4223 -36.3236 -89.6959
LeftForeArm  3.99931 -13.3128 -15.0033
LeftHand  -0.0449251 4.81062 -1.77171
RightShoulder  15.1002 26.9611 42.9564
RightArm  44.914 12.7532 21.3137
RightForeArm  16.0651 26.62 4.8641
RightHand  1.75231 7.75044 14.9708
LeftUpLeg  -107.727 22.5118 -82.0605
LeftLeg  124.62 -3.56921 4.31476
LeftFoot  11.8282 2.71176 -13.5327
LeftToes  1.03528e-008 1.55373e-010 -2.26046e-010
694
root  -8.33578 39.3651 35.8035 -19.2902 -58.0635 10.9317
RightUpLeg  -5.14716 -12.2805 3.82822
RightLeg  15.3708 -17.2875 -0.432095
RightFoot  1.11681 0.864671 -7.83294
RightToes  -1.16417e-010 0 -3.6325e-017
Spine  15.5282 0.219641 -3.93533
Spine1  -1.89942 -5.21745 8.0599
HEad  -19.6217 -23.0429 15.1394
LeftShoulder1  3.02139 -5.09959 -29.0814
LeftArm  71.8118 -35.9776 -89.1825
LeftForeArm  4.68544 -13.4829 -14.8462
LeftHand  -0.0442778 4.76856 -1.57146
RightShoulder  15.079 26.6936 43.3072
RightArm  46.2497 12.2613 21.313
RightForeArm  14.7531 26.328 4.87004
RightHand  1.76228 7.81521 14.9805
LeftUpLeg  -107.466 25.9978 -83.2385
LeftLeg  125.072 -2.45959 2.77879
LeftFoot  11.8712 1.98286 -9.99063
LeftToes  1.03528e-008 1.55373e-010 -2.26046e-010
695
root  -8.98029 37.8866 36.4402 -20.0725 -58.6914 10.6425
RightUpLeg  -7.57534 -16.3309 6.67443
RightLeg  23.8231 -16.67 -6.32201
RightFoot  -11.1189 -0.0408319 -17.2157
RightToes  -1.16417e-010 0 -3.6325e-017
Spine  16.2041 0.06022 -2.95536
Spine1  -0.724015 -5.31124 7.49845
HEad  -20.0047 -26.9484 15.8403
LeftShoulder1  3.02198 -5.05473 -29.2761
LeftArm  73.2509 -35.2734 -89.0909
LeftForeArm  5.32664 -13.9267 -14.4823
LeftHand  -0.045211 4.82909 -1.15948
RightShoulder  14.8637 26.1003 43.5783
RightArm  47.3833 11.4655 21.2272
RightForeArm  13.3725 26.4295 4.9676
RightHand  1.79255 7.69441 15.3865
LeftUpLeg  -105.029 27.4397 -79.0327
LeftLeg  126.848 -1.48936 1.39049
LeftFoot  14.0995 2.31882 -10.6343
LeftToes  1.03528e-008 1.55373e-010 -2.26046e-010
696
root  -9.44621 36.4925 37.0955 -17.0195 -60.7857 5.25148
RightUpLeg  -11.7206 -11.4424 11.4117
RightLeg  38.2167 -18.4527 -15.2131
RightFoot  -16.8122 -0.807513 -14.4441
RightToes  -1.16417e-010 0 -3.6325e-017
Spine  17.4737 -0.930687 1.9771
Spine1  0.885281 -5.10707 5.36924
HEad  -23.9421 -29.9303 18.3429
LeftShoulder1  3.00525 -4.80812 -30.1358
LeftArm  76.6252 -34.9176 -88.4687
LeftForeArm  3.72079 -14.9436 -13.7414
LeftHand  -0.0462448 5.11554 0.462848
RightShoulder  15.2677 25.8317 45.2731
RightArm  48.8047 12.2271 20.5914
RightForeArm  11.7092 25.3409 4.81495
RightHand  1.73181 7.33418 15.2948
LeftUpLeg  -103.595 29.3529 -74.8114
LeftLeg  128.248 -3.5113 3.69455
LeftFoot  13.252 1.1321 -5.56512
LeftToes  1.03528e-008 1.55373e-010 -2.26046e-010
